These are just the interviews:																			Carrie_Underwood_720p_20110407_TTL																		Neve_Campbell_720p_20110407_TTL																			Josh Kelley_SONG_ONLY_720p_20110407_TTL 																	and the live song.(includes an MP3). 																		Enjoy and please share.																																																							**********************************************************************************************************************************************************************************************************																																								Ellen_Carrie_Underwood_720p_20110407_TTL.avi
Format                           : AVI
Format/Info                      : Audio Video Interleave
File size                        : 271 MiB
Duration                         : 16mn 32s
Overall bit rate                 : 2 296 Kbps
Movie name                       : Ellen_Carrie Underwood_720p_20110407_TTL.mpg
Director                         : created.with.SUPER(C).v2010.bld.37
Writing application              : SUPER(C)   

Video
ID                               : 0
Format                           : MPEG-4 Visual
Format profile                   : Simple@L3
Format settings, BVOP            : No
Format settings, QPel            : No
Format settings, GMC             : No warppoints
Format settings, Matrix          : Default (H.263)
Codec ID                         : XVID
Codec ID/Hint                    : XviD
Duration                         : 8mn 15s
Bit rate                         : 4 467 Kbps
Width                            : 1 280 pixels
Height                           : 720 pixels
Display aspect ratio             : 16:9
Frame rate                       : 29.970 fps
Resolution                       : 8 bits
Colorimetry                      : 4:2:0
Scan type                        : Progressive
Bits/(Pixel*Frame)               : 0.162
Stream size                      : 264 MiB (97%)
Writing library                  : XviD 1.1.2 (UTC 2006-11-01)

Audio
ID                               : 1
Format                           : MPEG Audio
Format version                   : Version 2
Format profile                   : Layer 3
Mode                             : Joint stereo
Format_Settings_ModeExtension    : MS Stereo
Codec ID                         : 55
Codec ID/Hint                    : MP3
Duration                         : 16mn 32s
Bit rate mode                    : Constant
Bit rate                         : 112 Kbps
Channel(s)                       : 2 channels
Sampling rate                    : 22.05 KHz
Stream size                      : 6.62 MiB (2%)
Alignment                        : Aligned on interleaves
Interleave, duration             : 26 ms (0.78 video frame)
Interleave, preload duration     : 26 ms
Writing library                  : LAME3.98ª / Ê*Ó|Ü5,–CN

